<svg width="24" height="24" viewBox="0 0 24 24" fill="none" xmlns="http://www.w3.org/2000/svg">
<g clip-path="url(#clip0_39_103)">
<path d="M13.2831 10.1496V10.1213C13.2773 10.1306 13.2698 10.1406 13.2642 10.1496H13.2831Z" fill="white"/>
<path d="M12 0C5.37265 0 0 5.37265 0 12C0 18.6274 5.37265 24 12 24C18.6274 24 24 18.6274 24 12C24 5.37265 18.6274 0 12 0ZM8.78683 17.5951H5.8922V8.88709H8.78683V17.5951ZM7.33963 7.69882H7.32017C6.34921 7.69882 5.71991 7.02936 5.71991 6.19346C5.71991 5.33907 6.36794 4.68908 7.35861 4.68908C8.34929 4.68908 8.95839 5.33882 8.97737 6.19346C8.97737 7.02961 8.34953 7.69882 7.33963 7.69882ZM19.2262 17.5951H16.3314V12.9362C16.3314 11.7659 15.9126 10.9672 14.8649 10.9672C14.0651 10.9672 13.5891 11.5055 13.3795 12.0263C13.3031 12.2124 13.2834 12.4716 13.2834 12.732V17.5951H10.3876C10.3876 17.5951 10.4265 9.70449 10.3876 8.88709H13.2829V10.1213C13.6677 9.5288 14.3546 8.68243 15.8924 8.68243C17.7975 8.68243 19.2257 9.92691 19.2257 12.6018V17.5951H19.2262Z" fill="white"/>
</g>
<defs>
<clipPath id="clip0_39_103">
<rect width="24" height="24" fill="white"/>
</clipPath>
</defs>
</svg>
