<svg width="24" height="24" viewBox="0 0 24 24" fill="none" xmlns="http://www.w3.org/2000/svg">
<path d="M15.1266 5.95508H8.81343C7.23361 5.95508 5.94824 7.24044 5.94824 8.82026V15.1914C5.94824 16.7712 7.23361 18.0566 8.81343 18.0566H15.1266C16.7064 18.0566 17.9918 16.7712 17.9918 15.1914V8.82026C17.9918 7.24044 16.7064 5.95508 15.1266 5.95508ZM11.9821 15.8207C9.8406 15.8207 8.09847 14.097 8.09847 11.9784C8.09847 9.85985 9.84084 8.13621 11.9821 8.13621C14.1233 8.13621 15.8657 9.85985 15.8657 11.9784C15.8657 14.097 14.1235 15.8207 11.9821 15.8207ZM15.9348 8.89278C15.4301 8.89278 15.021 8.48371 15.021 7.97901C15.021 7.4743 15.4301 7.06523 15.9348 7.06523C16.4395 7.06523 16.8485 7.4743 16.8485 7.97901C16.8485 8.48371 16.4395 8.89278 15.9348 8.89278Z" fill="#1569A1"/>
<path d="M12 0C5.37265 0 0 5.37265 0 12C0 18.6274 5.37265 24 12 24C18.6274 24 24 18.6274 24 12C24 5.37265 18.6274 0 12 0ZM19.4092 15.191C19.4092 17.5525 17.488 19.4735 15.1268 19.4735H8.81359C6.45214 19.4735 4.53115 17.5522 4.53115 15.191V8.81992C4.53115 6.45847 6.45238 4.53748 8.81359 4.53748H15.1268C17.4882 4.53748 19.4092 6.45871 19.4092 8.81992V15.191Z" fill="#1569A1"/>
<path d="M11.9822 9.55078C10.6207 9.55078 9.51318 10.6398 9.51318 11.9784C9.51318 13.3171 10.6207 14.4061 11.9822 14.4061C13.3437 14.4061 14.4512 13.3171 14.4512 11.9784C14.4512 10.6398 13.3437 9.55078 11.9822 9.55078Z" fill="#1569A1"/>
</svg>
