<svg width="24" height="24" viewBox="0 0 24 24" fill="none" xmlns="http://www.w3.org/2000/svg">
<path d="M15.1266 5.95483H8.81343C7.23361 5.95483 5.94824 7.2402 5.94824 8.82002V15.1911C5.94824 16.7709 7.23361 18.0563 8.81343 18.0563H15.1266C16.7064 18.0563 17.9918 16.7709 17.9918 15.1911V8.82002C17.9918 7.2402 16.7064 5.95483 15.1266 5.95483ZM11.9821 15.8204C9.8406 15.8204 8.09847 14.0968 8.09847 11.9782C8.09847 9.8596 9.84084 8.13597 11.9821 8.13597C14.1233 8.13597 15.8657 9.8596 15.8657 11.9782C15.8657 14.0968 14.1235 15.8204 11.9821 15.8204ZM15.9348 8.89254C15.4301 8.89254 15.021 8.48347 15.021 7.97876C15.021 7.47406 15.4301 7.06499 15.9348 7.06499C16.4395 7.06499 16.8485 7.47406 16.8485 7.97876C16.8485 8.48347 16.4395 8.89254 15.9348 8.89254Z" fill="white"/>
<path d="M12 0C5.37265 0 0 5.37265 0 12C0 18.6274 5.37265 24 12 24C18.6274 24 24 18.6274 24 12C24 5.37265 18.6274 0 12 0ZM19.4092 15.191C19.4092 17.5525 17.488 19.4735 15.1268 19.4735H8.81359C6.45214 19.4735 4.53115 17.5522 4.53115 15.191V8.81992C4.53115 6.45847 6.45238 4.53748 8.81359 4.53748H15.1268C17.4882 4.53748 19.4092 6.45871 19.4092 8.81992V15.191Z" fill="white"/>
<path d="M11.9822 9.55054C10.6207 9.55054 9.51318 10.6395 9.51318 11.9782C9.51318 13.3168 10.6207 14.4058 11.9822 14.4058C13.3437 14.4058 14.4512 13.3168 14.4512 11.9782C14.4512 10.6395 13.3437 9.55054 11.9822 9.55054Z" fill="white"/>
</svg>
