<svg width="24" height="24" viewBox="0 0 24 24" fill="none" xmlns="http://www.w3.org/2000/svg">
<g clip-path="url(#clip0_406_310)">
<path d="M12 0C5.37265 0 0 5.37265 0 12C0 18.6274 5.37265 24 12 24C18.6274 24 24 18.6274 24 12C24 5.37265 18.6274 0 12 0ZM18.6619 9.13676V9.55337C18.6619 13.7193 15.5376 18.4405 9.77482 18.4405C7.96966 18.4405 6.37281 17.9545 4.98402 17.0519C5.26168 17.1213 5.46999 17.1213 5.74765 17.1213C7.20579 17.1213 8.59434 16.6353 9.63587 15.8021C8.24732 15.8021 7.13644 14.8995 6.71982 13.6497C6.85878 13.719 7.06708 13.719 7.27539 13.719C7.55305 13.719 7.83071 13.6497 8.10861 13.5801C6.65047 13.3024 5.60918 12.0526 5.60918 10.5251V10.4557C6.02579 10.7334 6.51176 10.8723 6.99773 10.8723C6.1645 10.3168 5.60918 9.41418 5.60918 8.30329C5.60918 7.67837 5.74813 7.19241 6.02579 6.70644C7.62265 8.58095 9.91402 9.83079 12.4828 9.96974C12.4134 9.76144 12.4134 9.55313 12.4134 9.27547C12.4134 7.53967 13.802 6.15112 15.5378 6.15112C16.4404 6.15112 17.2736 6.49838 17.8289 7.12305C18.5926 6.9841 19.2175 6.70644 19.8424 6.35943C19.5647 7.12305 19.0788 7.67862 18.4538 8.09523C19.0788 8.02588 19.7037 7.88692 20.259 7.60926C19.8424 8.23418 19.3562 8.7895 18.6619 9.13676Z" fill="#1569A1"/>
</g>
<defs>
<clipPath id="clip0_406_310">
<rect width="24" height="24" fill="white"/>
</clipPath>
</defs>
</svg>
